<?xml version="1.0" encoding="UTF-8" standalone="no"?>
<svg
   width="733"
   height="408"
   xml:space="preserve"
   overflow="hidden"
   version="1.1"
   id="svg16"
   sodipodi:docname="SBR.svg"
   inkscape:version="1.4.2 (ebf0e940, 2025-05-08)"
   xmlns:inkscape="http://www.inkscape.org/namespaces/inkscape"
   xmlns:sodipodi="http://sodipodi.sourceforge.net/DTD/sodipodi-0.dtd"
   xmlns="http://www.w3.org/2000/svg"
   xmlns:svg="http://www.w3.org/2000/svg"><sodipodi:namedview
     id="namedview16"
     pagecolor="#ffffff"
     bordercolor="#000000"
     borderopacity="0.25"
     inkscape:showpageshadow="2"
     inkscape:pageopacity="0.0"
     inkscape:pagecheckerboard="0"
     inkscape:deskcolor="#d1d1d1"
     inkscape:zoom="1.229937"
     inkscape:cx="416.688"
     inkscape:cy="214.23861"
     inkscape:window-width="1512"
     inkscape:window-height="916"
     inkscape:window-x="0"
     inkscape:window-y="38"
     inkscape:window-maximized="0"
     inkscape:current-layer="svg16" /><defs
     id="defs5"><filter
       id="fx0"
       x="-10%"
       y="-10%"
       width="120%"
       height="120%"
       filterUnits="userSpaceOnUse"
       primitiveUnits="userSpaceOnUse"><feComponentTransfer
         color-interpolation-filters="sRGB"
         id="feComponentTransfer1"><feFuncR
           type="discrete"
           tableValues="0.000000 0.000000"
           id="feFuncR1" /><feFuncG
           type="discrete"
           tableValues="0.000000 0.000000"
           id="feFuncG1" /><feFuncB
           type="discrete"
           tableValues="0.000000 0.000000"
           id="feFuncB1" /><feFuncA
           type="linear"
           slope="0.741176"
           intercept="0.000000"
           id="feFuncA1" /></feComponentTransfer><feGaussianBlur
         stdDeviation="6.103254 6.153452"
         id="feGaussianBlur1" /></filter><linearGradient
       x1="938.5"
       y1="1134"
       x2="789.5"
       y2="1134"
       gradientUnits="userSpaceOnUse"
       spreadMethod="reflect"
       id="fill1"><stop
         offset="0"
         stop-color="#999CB1"
         stop-opacity="1"
         id="stop1" /><stop
         offset="0.5"
         stop-color="#C2C4CF"
         stop-opacity="1"
         id="stop2" /><stop
         offset="1"
         stop-color="#E2E2E7"
         stop-opacity="1"
         id="stop3" /></linearGradient><clipPath
       id="clip2"><rect
         x="0.528534"
         y="0.819763"
         width="242.662"
         height="47.5377"
         id="rect3" /></clipPath><clipPath
       id="clip3"><rect
         x="0"
         y="0"
         width="244"
         height="49"
         id="rect4" /></clipPath><clipPath
       id="clip4"><rect
         x="0"
         y="0"
         width="244"
         height="49"
         id="rect5" /></clipPath></defs><g
     transform="matrix(0.99017293,0,0,0.90541596,-742.50246,-969.8364)"
     id="g16"><g
       id="g15"
       transform="matrix(0.90238108,0,0,0.93285749,139.47889,92.797147)"><path
         d="m 938.5,1206.46 -66.336,1.04 -82.664,-69.36 43.884,-1.03 -24.493,-48.66 45.924,18.63 -5.103,-46.58 79.603,79.71 z"
         stroke="#000000"
         stroke-width="6.875"
         stroke-linecap="butt"
         stroke-linejoin="miter"
         stroke-miterlimit="8"
         stroke-opacity="1"
         fill="url(#fill1)"
         fill-rule="evenodd"
         id="path5"
         style="fill:url(#fill1)" /><path
         d="m 872,1149 231,202.69"
         stroke="#000000"
         stroke-width="10.3125"
         stroke-linecap="butt"
         stroke-linejoin="miter"
         stroke-miterlimit="8"
         stroke-opacity="1"
         fill="none"
         fill-rule="evenodd"
         id="path6" /><path
         d="M 0,0 130.904,114.539"
         stroke="#000000"
         stroke-width="10.3125"
         stroke-linecap="butt"
         stroke-linejoin="miter"
         stroke-miterlimit="8"
         stroke-opacity="1"
         fill="none"
         fill-rule="evenodd"
         transform="matrix(-1,0,0,1,1235.9,1238)"
         id="path7" /><path
         d="m 1267.5,1211.5 -82,21.9 53.13,4.61 c -0.39,18.83 -0.77,37.66 -1.16,56.49 z"
         stroke="#000000"
         stroke-width="6.875"
         stroke-linecap="butt"
         stroke-linejoin="miter"
         stroke-miterlimit="8"
         stroke-opacity="1"
         fill="#e97132"
         fill-rule="evenodd"
         fill-opacity="1"
         id="path8" /><path
         d="m 938.5,1221.5 149.66,130.58"
         stroke="#000000"
         stroke-width="4.58333"
         stroke-linecap="butt"
         stroke-linejoin="miter"
         stroke-miterlimit="8"
         stroke-opacity="1"
         fill="none"
         fill-rule="evenodd"
         id="path9" /><path
         d="M 0,0 105.6,92.374"
         stroke="#000000"
         stroke-width="4.58333"
         stroke-linecap="butt"
         stroke-linejoin="miter"
         stroke-miterlimit="8"
         stroke-opacity="1"
         fill="none"
         fill-rule="evenodd"
         transform="matrix(-1,0,0,1,1206.1,1251.5)"
         id="path10" /><g
         clip-path="url(#clip2)"
         filter="url(#fx0)"
         transform="matrix(3.0041,0,0,2.97959,734,1310)"
         id="g14"><g
           clip-path="url(#clip3)"
           id="g13"><g
             clip-path="url(#clip4)"
             id="g12"><path
               d="m 19.0252,27.7722 c 9.6963,-1.2277 19.3926,-2.4554 29.377,-3.3674 9.9844,-0.9119 18.6727,-1.5082 30.5291,-2.1046 11.8564,-0.5963 27.1687,-1.403 40.6097,-1.4732 13.44,-0.0701 26.737,0.3157 40.033,1.0523 13.296,0.7366 26.593,1.8591 39.745,3.3674 13.153,1.5082 12.318,1.0698 25.326,3.1568"
               stroke="#000000"
               stroke-width="3"
               stroke-linecap="butt"
               stroke-linejoin="miter"
               stroke-miterlimit="8"
               stroke-opacity="1"
               fill="none"
               fill-rule="evenodd"
               id="path11" /><path
               d="m 19.0252,27.7722 c 9.6963,-1.2277 19.3926,-2.4554 29.377,-3.3674 9.9844,-0.9119 18.6727,-1.5082 30.5291,-2.1046 11.8564,-0.5963 27.1687,-1.403 40.6097,-1.4732 13.44,-0.0701 26.737,0.3157 40.033,1.0523 13.296,0.7366 26.593,1.8591 39.745,3.3674 13.153,1.5082 12.318,1.0698 25.326,3.1568"
               stroke="#000000"
               stroke-width="3"
               stroke-linecap="butt"
               stroke-linejoin="miter"
               stroke-miterlimit="8"
               stroke-opacity="1"
               fill="none"
               fill-rule="evenodd"
               id="path12" /></g></g></g><path
         d="m 772,1375 c 30.935,-3.88 61.869,-7.77 93.723,-10.65 31.854,-2.89 59.572,-4.78 97.398,-6.66 37.829,-1.89 86.679,-4.44 129.559,-4.66 42.88,-0.23 85.3,0.99 127.72,3.33 42.42,2.33 84.84,5.88 126.8,10.65 41.96,4.77 39.3,3.39 80.8,9.99"
         stroke="#000000"
         stroke-width="10.3125"
         stroke-linecap="butt"
         stroke-linejoin="miter"
         stroke-miterlimit="8"
         stroke-opacity="1"
         fill="none"
         fill-rule="evenodd"
         id="path14" /><path
         d="m 772,1375 c 30.935,-3.88 61.869,-7.77 93.723,-10.65 31.854,-2.89 59.572,-4.78 97.398,-6.66 37.829,-1.89 86.679,-4.44 129.559,-4.66 42.88,-0.23 85.3,0.99 127.72,3.33 42.42,2.33 84.84,5.88 126.8,10.65 41.96,4.77 39.3,3.39 80.8,9.99"
         stroke="#000000"
         stroke-width="10.3125"
         stroke-linecap="butt"
         stroke-linejoin="miter"
         stroke-miterlimit="8"
         stroke-opacity="1"
         fill="none"
         fill-rule="evenodd"
         id="path15" /></g></g><text
     xml:space="preserve"
     style="font-size:121.398px;text-align:start;writing-mode:lr-tb;direction:ltr;text-anchor:start;fill:#e97132;fill-opacity:1;stroke:#e97132;stroke-width:1.16139;stroke-opacity:1"
     x="83.338882"
     y="372.88538"
     id="text16"
     transform="scale(0.99196055,1.0081046)"><tspan
       sodipodi:role="line"
       id="tspan16"
       x="83.338882"
       y="372.88538"
       style="font-style:normal;font-variant:normal;font-weight:normal;font-stretch:normal;font-size:121.398px;font-family:'Iowan Old Style';-inkscape-font-specification:'Iowan Old Style';fill:#e97132;fill-opacity:1;stroke:#e97132;stroke-width:1.16139;stroke-opacity:1"><tspan
         style="font-style:normal;font-variant:normal;font-weight:normal;font-stretch:normal;font-size:121.398px;font-family:'Iowan Old Style';-inkscape-font-specification:'Iowan Old Style';fill:#000000;fill-opacity:1;stroke:#000000;stroke-width:1.16139;stroke-opacity:1"
         id="tspan19">Sagitta<tspan
   style="font-size:33.1411px;stroke-width:1.16139"
   id="tspan20"> </tspan></tspan><tspan
         style="font-style:italic;font-variant:normal;font-weight:normal;font-stretch:normal;font-size:121.398px;font-family:'Iowan Old Style';-inkscape-font-specification:'Iowan Old Style Italic';fill:#e97132;fill-opacity:1;stroke:#e97132;stroke-width:1.16139;stroke-opacity:1"
         id="tspan17">SBR</tspan></tspan></text></svg>
